<?xml version="1.0" encoding="UTF-8" standalone="no"?>
<!-- Created with Inkscape (http://www.inkscape.org/) -->

<svg
   width="420"
   height="81.040001"
   viewBox="0 0 111.12499 21.441832"
   version="1.1"
   id="svg5"
   inkscape:version="1.2.2 (732a01da63, 2022-12-09)"
   sodipodi:docname="comod.svg"
   xmlns:inkscape="http://www.inkscape.org/namespaces/inkscape"
   xmlns:sodipodi="http://sodipodi.sourceforge.net/DTD/sodipodi-0.dtd"
   xmlns="http://www.w3.org/2000/svg"
   xmlns:svg="http://www.w3.org/2000/svg">
  <sodipodi:namedview
     id="namedview7"
     pagecolor="#ffffff"
     bordercolor="#000000"
     borderopacity="0.25"
     inkscape:showpageshadow="2"
     inkscape:pageopacity="0"
     inkscape:pagecheckerboard="0"
     inkscape:deskcolor="#d1d1d1"
     inkscape:document-units="px"
     showgrid="false"
     inkscape:zoom="1.4142136"
     inkscape:cx="127.63277"
     inkscape:cy="72.124892"
     inkscape:window-width="1858"
     inkscape:window-height="1057"
     inkscape:window-x="54"
     inkscape:window-y="-8"
     inkscape:window-maximized="1"
     inkscape:current-layer="layer1" />
  <defs
     id="defs2" />
  <g
     inkscape:label="Layer 1"
     inkscape:groupmode="layer"
     id="layer1"
     transform="translate(-38.702175,-62.816284)">
    <rect
       style="fill:#cdcdcd;fill-opacity:1;stroke:none;stroke-width:0.430366;stroke-linecap:round;stroke-linejoin:round"
       id="rect312"
       width="111.12499"
       height="21.441832"
       x="38.702175"
       y="62.816284"
       rx="2.6458333"
       ry="2.6458333" />
    <path
       id="rect1004"
       style="fill:#000000;fill-opacity:1;stroke:none;stroke-width:1.61503;stroke-linecap:round;stroke-linejoin:round;stroke-dasharray:none;stroke-opacity:1"
       d="m 131.03126,65.462164 v 8.075034 8.075035 h 8.07504 a 8.0751089,8.0751089 0 0 0 8.07503,-8.075034 8.0751089,8.0751089 0 0 0 -8.07503,-8.075034 z m 4.03731,4.037725 h 4.03773 a 4.0375545,4.0375545 0 0 1 4.03731,4.037309 4.0375545,4.0375545 0 0 1 -4.03731,4.037726 h -4.03773 v -4.037726 z" />
    <path
       id="path950"
       style="fill:#000000;fill-opacity:1;stroke:none;stroke-width:1.61503;stroke-linecap:round;stroke-linejoin:round;stroke-dasharray:none;stroke-opacity:1"
       d="m 67.306006,65.462165 a 8.0751089,8.0751089 0 0 0 -8.075034,8.075033 8.0751089,8.0751089 0 0 0 8.075034,8.075034 8.0751089,8.0751089 0 0 0 7.699887,-5.652649 h -4.469625 a 4.0375545,4.0375545 0 0 1 -3.230262,1.615341 4.0375545,4.0375545 0 0 1 -4.037726,-4.037726 4.0375545,4.0375545 0 0 1 4.037726,-4.037725 4.0375545,4.0375545 0 0 1 3.230262,1.615339 h 4.469625 a 8.0751089,8.0751089 0 0 0 -7.699887,-5.652647 z" />
    <path
       id="circle1061"
       style="fill:#000000;fill-opacity:1;stroke:none;stroke-width:1.61503;stroke-linecap:round;stroke-linejoin:round;stroke-dasharray:none;stroke-opacity:1"
       d="m 84.974717,65.462165 a 8.0751089,8.0751089 0 0 0 -8.075032,8.075034 8.0751089,8.0751089 0 0 0 8.075034,8.075033 8.0751089,8.0751089 0 0 0 8.075032,-8.075032 8.0751089,8.0751089 0 0 0 -8.075034,-8.075035 z m 0,4.037725 a 4.0375545,4.0375545 0 0 1 4.037725,4.037309 4.0375545,4.0375545 0 0 1 -4.037725,4.037725 4.0375545,4.0375545 0 0 1 -4.037725,-4.037725 4.0375545,4.0375545 0 0 1 4.037725,-4.037309 z" />
    <path
       id="rect1079"
       style="fill:#000000;fill-opacity:1;stroke:none;stroke-width:1.61503;stroke-linecap:round;stroke-linejoin:round;stroke-dasharray:none;stroke-opacity:1"
       d="m 94.943543,65.462165 v 16.150067 h 4.037307 v -7.570528 l 1.74971,3.280758 h 4.57603 l 1.74972,-3.280757 v 7.570527 h 4.0373 V 65.462165 h -4.0373 l -4.03774,7.570526 -4.03772,-7.570526 z" />
    <path
       id="path1168"
       style="fill:#000000;fill-opacity:1;stroke:none;stroke-width:1.61503;stroke-linecap:round;stroke-linejoin:round;stroke-dasharray:none;stroke-opacity:1"
       d="m 121.06243,65.462165 a 8.0751089,8.0751089 0 0 0 -8.07503,8.075034 8.0751089,8.0751089 0 0 0 8.07503,8.075033 8.0751089,8.0751089 0 0 0 8.07503,-8.075033 8.0751089,8.0751089 0 0 0 -8.07503,-8.075034 z m 0,4.037725 a 4.0375545,4.0375545 0 0 1 4.03772,4.037309 4.0375545,4.0375545 0 0 1 -4.03772,4.037725 4.0375545,4.0375545 0 0 1 -4.03772,-4.037725 4.0375545,4.0375545 0 0 1 4.03772,-4.037309 z" />
    <g
       id="g1554"
       transform="matrix(0.80751089,0,0,0.80751089,17.146156,25.65761)">
      <rect
         style="fill:#000000;fill-opacity:1;stroke:none;stroke-width:0.264583"
         id="rect1170"
         width="15"
         height="20"
         x="29.970924"
         y="49.292809"
         rx="0.75"
         ry="0.75" />
      <g
         id="g1538"
         transform="translate(0,0.06029053)">
        <g
           id="g1488">
          <path
             style="fill:none;fill-opacity:1;stroke:#ffffff;stroke-width:0.5;stroke-linecap:round;stroke-linejoin:round;stroke-dasharray:none;stroke-opacity:1;paint-order:normal"
             d="m 30.705473,54.607587 v -4.62493 h 13.530903 v 4.62493 H 30.705473"
             id="path1339"
             sodipodi:nodetypes="ccccc" />
          <path
             style="fill:none;fill-opacity:1;stroke:#ffffff;stroke-width:0.499999;stroke-linecap:round;stroke-linejoin:round;stroke-dasharray:none;stroke-opacity:1"
             d="m 34.866744,53.4103 h 5.208361"
             id="path1337" />
        </g>
        <g
           id="g1512"
           transform="translate(-1.225586e-7,4.6249289)">
          <path
             style="fill:none;fill-opacity:1;stroke:#ffffff;stroke-width:0.5;stroke-linecap:round;stroke-linejoin:round;stroke-dasharray:none;stroke-opacity:1;paint-order:normal"
             d="m 30.705473,54.607587 v -4.62493 h 13.530903 v 4.62493 H 30.705473"
             id="path1508"
             sodipodi:nodetypes="ccccc" />
          <path
             style="fill:none;fill-opacity:1;stroke:#ffffff;stroke-width:0.499999;stroke-linecap:round;stroke-linejoin:round;stroke-dasharray:none;stroke-opacity:1"
             d="m 34.866744,53.4103 h 5.208361"
             id="path1510" />
        </g>
        <g
           id="g1518"
           transform="translate(-1.225586e-7,9.2498602)">
          <path
             style="fill:none;fill-opacity:1;stroke:#ffffff;stroke-width:0.5;stroke-linecap:round;stroke-linejoin:round;stroke-dasharray:none;stroke-opacity:1;paint-order:normal"
             d="m 30.705473,54.607587 v -4.62493 h 13.530903 v 4.62493 H 30.705473"
             id="path1514"
             sodipodi:nodetypes="ccccc" />
          <path
             style="fill:none;fill-opacity:1;stroke:#ffffff;stroke-width:0.499999;stroke-linecap:round;stroke-linejoin:round;stroke-dasharray:none;stroke-opacity:1"
             d="m 34.866744,53.4103 h 5.208361"
             id="path1516" />
        </g>
        <g
           id="g1524"
           transform="translate(-1.2255859e-7,13.874792)">
          <path
             style="fill:none;fill-opacity:1;stroke:#ffffff;stroke-width:0.5;stroke-linecap:round;stroke-linejoin:round;stroke-dasharray:none;stroke-opacity:1;paint-order:normal"
             d="m 30.705473,54.607587 v -4.62493 h 13.530903 v 4.62493 H 30.705473"
             id="path1520"
             sodipodi:nodetypes="ccccc" />
          <path
             style="fill:none;fill-opacity:1;stroke:#ffffff;stroke-width:0.499999;stroke-linecap:round;stroke-linejoin:round;stroke-dasharray:none;stroke-opacity:1"
             d="m 34.866744,53.4103 h 5.208361"
             id="path1522" />
        </g>
      </g>
    </g>
  </g>
</svg>
